<svg width="120" height="120" viewBox="0 0 120 120" fill="none" xmlns="http://www.w3.org/2000/svg">
<path d="M19.7625 17.4672C-1.52664 36.0322 -1.70739 74.7223 10.0044 95.2052C29.9812 130.066 109.248 121.366 115.882 77.9182C129.616 -11.7749 44.9344 -4.54843 19.7625 17.4672Z" fill="#F07879"/>
<path fill-rule="evenodd" clip-rule="evenodd" d="M60.872 68.8783C55.4561 74.454 50.1913 79.182 45.098 83.3915C41.0627 86.7266 33.9606 80.5203 45.8039 69.8573C46.4515 69.1303 47.928 67.6364 49.8724 65.6689C50.9842 64.544 52.2489 63.2643 53.5993 61.8846C50.1233 58.4121 46.662 54.7678 43.4648 51.1864C31.3801 37.6495 43.0267 35.4224 49.4227 43.5834C51.9071 46.7534 56.074 50.8228 60.4099 54.7744C64.4188 50.4701 68.2638 46.0673 70.5259 42.7194C76.3416 34.1123 88.0904 35.362 77.1625 49.7997C74.0074 53.9823 70.8927 57.8058 67.8219 61.3261C69.3288 62.627 70.7364 63.8287 71.9652 64.8778C74.0015 66.6162 75.5468 67.9354 76.2396 68.5926C84.771 76.6846 83.0172 83.7456 78.0963 82.0274C74.8709 80.9012 68.257 75.6973 60.872 68.8783Z" fill="white"/>
</svg>
