<svg width="120" height="120" viewBox="0 0 120 120" fill="none" xmlns="http://www.w3.org/2000/svg">
<path d="M22.8987 18.5787C2.13123 36.0698 -1.10763 70.3118 9.61449 90.4429C27.8295 124.635 102.691 120.795 113.065 79.5723C134.292 -4.77509 47.4174 -2.09245 22.8987 18.5787Z" fill="#4DC085"/>
<path d="M36.1227 75.1904C41.1356 79.6911 48.0985 85.8262 57.9018 83.484C66.0757 81.5352 76.2173 64.9303 84.6138 48.1769C93.0103 31.4234 76.9119 32.175 72.2729 41.9019C67.6339 51.6289 59.1484 67.2899 55.4087 69.1514C51.669 71.0129 43.6377 62.2735 38.7939 62.9202C33.9501 63.5669 27.744 67.6745 36.1227 75.1904Z" fill="white"/>
</svg>
