<svg width="64" height="64" viewBox="0 0 64 64" fill="none" xmlns="http://www.w3.org/2000/svg">
  <defs>
    <linearGradient id="Gradient2" gradientTransform="rotate(45)">
      <stop offset="40%" stop-color="#167DB7" />
      <stop offset="100%" stop-color="#8a51fc" />
    </linearGradient>
  </defs>
<rect width="64" height="64" fill="url(#Gradient2)"/>
<path fill-rule="evenodd" clip-rule="evenodd" d="M25.8863 43.0205C26.2761 43.0205 26.5683 42.7756 26.6171 42.4327L30.1245 13.3878V13.2898C30.1245 12.996 29.9784 12.8 29.6861 12.8H29.5887H23.8403C23.4506 12.849 23.4019 12.996 23.3532 13.3388L19.8944 42.3837L19.8457 42.4817C19.8457 42.8245 20.138 43.0205 20.479 43.0205H25.8863ZM30.9527 51.2C35.678 51.2 39.6239 49.7307 40.4033 43.4123L44.1544 13.3878C44.1544 13.0939 44.0082 12.898 43.6672 12.898H43.5698L38.065 12.8C37.724 12.849 37.4317 13.0449 37.383 13.3878L33.7294 43.5592C33.3397 46.547 31.8782 46.7429 29.7835 46.8409C29.3885 46.8629 29.0231 46.8751 28.6874 46.8862C28.2779 46.8998 27.9126 46.9119 27.5913 46.9388C26.958 46.9388 26.7145 47.0858 26.617 47.7715L26.3248 50.1225V50.3674C26.3248 50.8994 26.7047 50.9538 27.0425 51.0023L27.0555 51.0041C27.1282 51.0139 27.1976 51.0236 27.2663 51.0333C27.8875 51.1206 28.4524 51.2 30.9527 51.2Z" fill="white"/>
</svg>
