<svg width="222" height="206" viewBox="0 0 222 206" fill="none" xmlns="http://www.w3.org/2000/svg">
<path fill-rule="evenodd" clip-rule="evenodd" d="M80.477 7.64655C52.9021 13.2484 16.1866 36.1775 14.6616 113.687C14.6616 201.303 143.013 220.71 179.387 165.857C255.099 42.9303 128.439 -2.09733 80.477 7.64655Z" fill="#FCF0C3"/>
<path fill-rule="evenodd" clip-rule="evenodd" d="M14.3119 70.6904C24.7327 82.3671 106.659 83.3563 118.253 70.6904C126.269 61.9329 124.036 18.3313 118.253 10.9801C108.04 -2.00233 22.7449 -3.51065 11.3725 10.9802C4.11813 20.2238 0.0881424 59.3435 14.3119 70.6904Z" fill="white"/>
<path fill-rule="evenodd" clip-rule="evenodd" d="M32.3973 48.7341C25.327 48.5985 21.2216 45.122 25.7425 43.5324C30.264 41.9421 51.9373 43.9275 58.5922 44.0878C65.247 44.2468 68.9075 44.6082 68.8535 47.7712C68.7874 51.8055 37.0722 49.0137 32.3973 48.7341Z" fill="#FCF0C3"/>
<path fill-rule="evenodd" clip-rule="evenodd" d="M29.2125 29.8057C23.5341 28.9615 20.8267 25.0575 28.9546 24.1777C52.894 21.5903 85.5165 24.9416 104.262 26.1631C106.942 26.3377 110.546 31.2049 99.8463 31.7422C76.6514 32.9054 54.3351 29.8057 29.2125 29.8057Z" fill="#FCF0C3"/>
<path fill-rule="evenodd" clip-rule="evenodd" d="M158.491 27.2025C149.766 35.3725 148.425 50.5737 152.955 59.2494C160.645 73.9812 191.674 70.5865 196.485 52.2687C205.738 17.0408 168.797 17.5524 158.491 27.2025Z" fill="#FD6340"/>
<path fill-rule="evenodd" clip-rule="evenodd" d="M165.275 33.8569C171.469 23.5922 186.216 29.8692 181.023 39.269C179.174 42.6151 176.993 45.2464 178.083 50.3238C178.902 54.1373 173.048 54.3921 172.43 49.9068C171.603 43.9007 173.456 41.9586 175.354 37.6165C176.81 34.2884 172.568 31.9821 169.066 37.2998C166.582 41.0699 162.808 37.9443 165.275 33.8569Z" fill="white"/>
<path fill-rule="evenodd" clip-rule="evenodd" d="M174.743 56.3852C172.837 57.5984 173.037 60.5312 175.176 61.2086C177.883 62.0656 180.317 59.4086 179.37 57.0301C178.723 55.4064 176.282 55.4056 174.743 56.3852Z" fill="white"/>
<path fill-rule="evenodd" clip-rule="evenodd" d="M78.2326 76.8715C76.3423 61.4537 83.3809 47.6883 98.8407 47.2071C122.036 46.4906 127.404 58.9696 127.939 75.2075C128.473 91.4454 120.082 98.3886 118.127 106.484C115.119 118.937 117.319 122.473 127.939 131.002C141.486 141.883 91.1002 162.171 82.7292 150.365C76.853 142.099 75.0902 130.261 78.5732 128.042C81.9932 121.933 83.2895 112.029 80.0843 96.176" fill="#8BBEDB"/>
<path fill-rule="evenodd" clip-rule="evenodd" d="M115.248 75.4792C112.155 73.5375 108.154 73.3005 105.339 75.0195C103.903 75.8967 104.438 77.5565 106.134 76.641C108.286 75.4792 111.355 75.2468 115.025 77.4209C116.257 78.3221 116.869 76.4969 115.248 75.4792Z" fill="#23536E"/>
<path fill-rule="evenodd" clip-rule="evenodd" d="M88.3378 79.7225C87.6858 79.3876 86.8618 79.6348 86.5006 80.2723C85.9469 81.3405 86.4825 83.3797 87.7782 83.2726C89.6089 83.0134 89.8013 80.5637 88.3378 79.7225Z" fill="#274454"/>
<path fill-rule="evenodd" clip-rule="evenodd" d="M110.748 79.9276C109.913 79.6149 108.953 80.0291 108.607 80.8495C108.088 82.2169 109.022 84.6035 110.571 84.2922C112.745 83.7221 112.633 80.7376 110.748 79.9276Z" fill="#274454"/>
<path d="M90.0129 75.3239C93.1042 76.5651 92.7478 81.017 92.2213 83.6725C91.9449 85.0775 91.463 87.4164 92.4387 88.6442C93.0911 89.3578 94.2439 88.4431 93.7005 87.6446C92.7814 86.4824 93.884 83.7102 94.1139 82.4285C94.8354 78.4069 93.8826 74.0944 90.1821 73.3795C88.3346 73.0226 86.3726 73.2055 84.6256 74.445C83.7132 75.0924 84.2046 76.4074 85.2721 75.9143C86.5045 75.345 88.2267 74.6067 90.0129 75.3239Z" fill="#23536E"/>
<path fill-rule="evenodd" clip-rule="evenodd" d="M40.75 182.909C28.4915 172.403 21.5137 153.149 18.033 137.255C16.9131 132.142 10.633 134.731 5.49573 131.784C0.306295 128.284 -0.280943 121.945 5.63611 122.253C10.3153 122.498 12.0618 122.687 11.6283 122.253C11.4008 122.026 9.27086 120.992 10.5323 119.813C11.7937 118.635 22.278 120.599 25.7694 131.784C29.8677 144.912 40.1656 167.657 44.5834 162.743C47.5194 159.478 49.5823 146.089 52.2563 138.016C57.8064 121.255 72.8215 130.708 69.2893 146.433C65.519 163.221 64.0791 168.688 56.8275 179.881C53.472 185.06 46.3226 187.685 40.75 182.909Z" fill="#88BCDA"/>
<path fill-rule="evenodd" clip-rule="evenodd" d="M152.06 146.284C144.283 132.881 143.369 118.944 131.744 119.623C116.144 120.534 105.628 140.095 88.5389 138.654C79.9385 137.928 79.8237 128.475 80.8448 125.408C85.0903 112.657 54.5389 114.35 48.5841 146.713C47.2972 153.707 52.3843 152.359 55.6234 158.074C57.2317 160.912 54.0023 178.746 49.5377 188.935C42.8383 204.223 121.421 213.218 143.014 195.839C156.445 185.029 163.302 165.658 152.06 146.284Z" fill="white"/>
<path fill-rule="evenodd" clip-rule="evenodd" d="M174.161 192.387C188.877 179.906 195.386 157.345 197.748 138.769C198.509 132.793 207.543 136.388 213.915 132.852C221.88 128.432 223.003 117.836 215.714 119.864C207.711 122.091 201.649 121.089 200.964 120.651C198.886 119.323 206.61 119.865 206.398 118.218C206.186 116.57 190.368 115.452 186.759 132.554C183.499 147.998 172.787 174.615 166.26 168.983C161.922 165.24 155.393 145.4 150.725 136.054C141.035 116.649 124.45 132.25 131.328 150.49C138.671 169.962 141.342 176.299 152.496 189.185C157.657 195.148 167.471 198.06 174.161 192.387Z" fill="#88BCDA"/>
<path fill-rule="evenodd" clip-rule="evenodd" d="M132.984 167.067C136.27 172.253 162.701 160.722 160.404 154.33C159.032 150.514 151.709 130.732 140.824 122.751C132.317 116.513 122.375 119.159 118.754 132.242C116.984 138.62 130.911 163.795 132.984 167.067Z" fill="#FEFEFE"/>
<path fill-rule="evenodd" clip-rule="evenodd" d="M126.843 79.1738C131.668 77.9952 132.992 81.5045 133.311 83.4533C134.185 88.2094 130.26 90.5835 126.151 89.713C123.585 89.1858 124.408 79.7606 126.812 79.1789" fill="#8BBEDB"/>
<path fill-rule="evenodd" clip-rule="evenodd" d="M79.211 76.1808C75.0282 75.8565 74.4032 78.9627 74.4032 80.6309C74.3231 84.7151 76.7377 86.3833 80.0444 85.0969C82.1118 84.3072 81.3211 76.3376 79.2377 76.1808" fill="#8BBEDB"/>
<path fill-rule="evenodd" clip-rule="evenodd" d="M126.529 84.2587C124.407 83.1427 124.064 93.3826 114.57 96.0123C107.759 97.8986 104.501 91.8181 97.3998 91.4121C90.2982 91.006 89.8454 93.3902 87.0953 94.1419C79.9414 96.0971 80.2801 80.8304 78.7832 83.201C77.4221 86.7838 78.2141 92.5526 76.191 101.563C74.1178 110.797 72.1623 121.061 84.5455 123.903C105.025 128.604 114.57 123.454 121.535 111.19C127.189 101.234 128.651 85.3746 126.529 84.2587Z" fill="#1D668F"/>
<path fill-rule="evenodd" clip-rule="evenodd" d="M97.889 96.3481C98.1033 94.619 97.3358 94.4364 96.5122 94.3958C95.6886 94.3552 94.153 94.0063 94.3515 95.9719C94.55 97.9376 97.6747 98.0771 97.889 96.3481Z" fill="white"/>
</svg>
